HIERARCHY
ROOT hip
{
	OFFSET 0.000000 0.000000 0.000000 
	CHANNELS 6 Xposition Yposition Zposition Xrotation Zrotation Yrotation
	JOINT abdomen
	{
		OFFSET 0.000000 3.402643 0.000000 
		CHANNELS 3 Xrotation Zrotation Yrotation
		JOINT chest
		{
			OFFSET 0.000000 8.438565 -0.680529 
			CHANNELS 3 Xrotation Zrotation Yrotation
			JOINT neck
			{
				OFFSET 0.000000 10.207942 -0.272212 
				CHANNELS 3 Xrotation Zrotation Yrotation
				JOINT head
				{
					OFFSET 0.000000 3.130431 0.000000 
					CHANNELS 3 Xrotation Zrotation Yrotation
					End Site
					{
						OFFSET 0.000000 3.130435 0.000000 
					}
				}
			}
			JOINT lCollar
			{
				OFFSET 3.470700 6.669187 -0.816635 
				CHANNELS 3 Yrotation Zrotation Xrotation
				JOINT lShldr
				{
					OFFSET 3.198488 0.000000 0.000000 
					CHANNELS 3 Zrotation Yrotation Xrotation
					JOINT lForeArm
					{
						OFFSET 10.139888 0.000000 0.000000 
						CHANNELS 3 Yrotation Zrotation Xrotation
						JOINT lHand
						{
							OFFSET 8.370511 0.000000 0.000000 
							CHANNELS 3 Zrotation Yrotation Xrotation
							End Site
							{
								OFFSET 4.083176 0.000000 0.000000 
							}
						}
					}
				}
			}
			JOINT rCollar
			{
				OFFSET -3.470700 6.669187 -0.816635 
				CHANNELS 3 Yrotation Zrotation Xrotation
				JOINT rShldr
				{
					OFFSET -3.198488 0.000000 0.000000 
					CHANNELS 3 Zrotation Yrotation Xrotation
					JOINT rForeArm
					{
						OFFSET -10.139888 0.000000 0.000000 
						CHANNELS 3 Yrotation Zrotation Xrotation
						JOINT rHand
						{
							OFFSET -8.370511 0.000000 0.000000 
							CHANNELS 3 Zrotation Yrotation Xrotation
							End Site
							{
								OFFSET -4.083176 0.000000 0.000000 
							}
						}
					}
				}
			}
		}
	}
	JOINT lThigh
	{
		OFFSET 5.308129 -1.633274 1.361059 
		CHANNELS 3 Xrotation Zrotation Yrotation
		JOINT lShin
		{
			OFFSET -2.041588 -20.007561 0.000000 
			CHANNELS 3 Xrotation Zrotation Yrotation
			JOINT lFoot
			{
				OFFSET 0.000000 -19.190928 -1.224953 
				CHANNELS 3 Xrotation Yrotation Zrotation
				End Site
				{
					OFFSET 0.000000 -2.449906 4.627600 
				}
			}
		}
	}
	JOINT rThigh
	{
		OFFSET -5.308129 -1.633274 1.361059 
		CHANNELS 3 Xrotation Zrotation Yrotation
		JOINT rShin
		{
			OFFSET 2.041588 -20.007561 0.000000 
			CHANNELS 3 Xrotation Zrotation Yrotation
			JOINT rFoot
			{
				OFFSET 0.000000 -19.190928 -1.224953 
				CHANNELS 3 Xrotation Yrotation Zrotation
				End Site
				{
					OFFSET 0.000000 -2.449906 4.627600 
				}
			}
		}
	}
}
MOTION
Frames: 10
Frame Time: 0.033333
-39.943886 40.742897 -96.662033 24.371105 -10.869982 24.481607 24.301758 -0.610951 1.221455 -20.839844 0.000000 0.000000 29.278225 9.284330 1.023278 -2.520832 -1.255077 0.218355 -4.754609 -0.109184 -0.002653 -78.696251 -14.895007 50.019188 -2.771997 -0.536583 -46.200855 8.145182 -8.612775 -0.218115 4.754609 0.109184 -0.002672 99.053482 0.470573 89.610146 80.205093 -1.110368 43.432922 10.409861 12.528153 1.135547 -70.258362 9.510821 -0.695639 18.847776 -3.660905 0.150157 3.926468 -0.004255 -10.885892 0.526297 -25.729675 -9.943693 15.846761 2.838454 -9.839419 -1.486154 -1.529614 21.925570 
-36.125126 40.033669 -91.686264 22.236975 -11.378096 26.138769 24.053501 -0.876920 0.494686 -20.839844 0.000000 0.000000 25.529995 10.982271 1.101846 -2.520832 -1.255077 0.218355 -4.754609 -0.109184 -0.002653 -82.000450 -19.808290 53.393509 -2.761236 -0.516352 -45.400249 8.078520 -3.003675 0.064317 4.754609 0.109184 -0.002672 97.446693 2.157948 81.878059 78.950104 -1.189285 46.726208 9.677065 13.261102 1.135493 -72.986107 9.228484 1.773652 36.510521 -3.318195 -5.657631 5.963557 -0.420781 -5.490911 9.804331 -23.183718 -14.742219 11.778041 2.769548 -11.874732 12.475904 0.428156 8.122346 
-32.979538 40.048904 -87.558823 23.119785 -12.836917 28.584045 23.744478 -1.051347 -0.473203 -20.839844 0.000000 0.000000 18.422680 12.027413 -0.976139 -2.520832 -1.255077 0.218355 -4.754609 -0.109184 -0.002653 -87.337662 -27.499556 63.101257 -2.755031 -0.496292 -44.404331 10.017303 2.814500 0.453871 4.754609 0.109184 -0.002672 95.358154 5.658389 69.465790 77.810951 -1.320434 52.684059 9.965805 15.605268 1.417019 -74.100006 7.636796 3.784402 48.091373 -2.947061 -9.573716 0.755365 -0.359904 -0.019166 5.621323 -20.354626 -11.849990 18.844120 2.427734 -13.254283 20.675547 -0.355577 0.745363 
-30.293413 40.724113 -84.073090 26.030777 -15.407564 29.607447 23.528406 -1.094425 -1.210703 -20.839844 0.000000 0.000000 11.110233 11.624894 -2.803416 -2.520832 -1.255077 0.218355 -4.754609 -0.109184 -0.002653 -94.003983 -35.514412 77.743233 -2.743757 -0.470351 -42.968868 12.873040 6.495393 0.955205 4.754609 0.109184 -0.002672 93.445778 9.842470 57.317062 77.705208 -1.368056 55.160938 10.618776 17.625170 1.732165 -73.954735 6.933849 5.073789 52.984917 -2.752361 -11.663652 -7.179614 -0.711365 2.919778 -8.699067 -17.308384 -5.185804 33.766209 1.981187 -15.645041 18.039257 -0.407592 4.269709 
-27.677841 41.730839 -80.800583 29.266699 -17.895775 28.754257 23.358122 -0.980280 -1.730467 -20.839844 0.000000 0.000000 6.639016 10.880236 -3.177429 -2.520832 -1.255077 0.218355 -4.754609 -0.109184 -0.002653 -100.795258 -40.874081 92.435371 -2.734711 -0.475210 -41.650333 15.779342 5.895959 1.141696 4.754609 0.109184 -0.002672 90.973175 13.206004 49.978020 79.542801 -1.324924 52.730438 9.931336 17.463167 1.630698 -71.893677 7.490542 6.477008 53.561710 -2.801181 -13.166803 -13.383521 -1.120262 4.172849 -23.957619 -15.473300 -4.456619 45.519447 1.677682 -11.528259 11.651218 -0.330317 5.241270 
-24.864281 42.974651 -77.511322 31.634481 -19.218182 26.953068 23.197083 -0.801633 -2.063326 -20.839844 0.000000 0.000000 6.569703 10.806257 -2.334185 -2.520832 -1.255077 0.218355 -4.754609 -0.109184 -0.002653 -106.440987 -42.159813 104.982002 -2.744471 -0.491013 -41.855194 19.013964 1.899774 0.838314 4.754609 0.109184 -0.002672 88.840691 14.487111 46.551384 82.039497 -1.272017 50.169220 7.667027 16.336109 1.225921 -66.869713 7.899227 7.869384 51.142433 -2.942110 -13.350508 -17.171700 -1.356038 4.355931 -37.388706 -13.153011 -1.832955 52.453777 1.571022 -6.252412 2.810973 -0.578434 6.098696 
-21.794348 44.435757 -74.062164 32.453262 -19.386305 24.572239 23.057484 -0.609222 -2.157828 -20.839844 0.000000 0.000000 10.970985 11.252944 0.101473 -2.520832 -1.255077 0.218355 -4.754609 -0.109184 -0.002653 -108.413422 -40.708496 111.779053 -2.728747 -0.471894 -39.228096 20.914217 -1.379055 0.407280 4.754609 0.109184 -0.002672 88.428123 13.726414 46.193756 83.744469 -1.233328 48.318844 5.401569 15.304166 0.867922 -58.418007 8.066869 9.210295 46.003410 -3.217962 -12.535222 -18.538967 -1.312869 3.683328 -46.672123 -9.978965 1.089131 52.424595 1.769041 -1.796136 -3.464882 -0.990468 8.432889 
-18.458364 46.024292 -70.382477 31.548561 -18.559809 21.870842 22.978516 -0.334695 -2.028739 -20.839844 0.000000 0.000000 18.798759 11.221701 3.483227 -2.520832 -1.255077 0.218355 -4.754609 -0.109184 -0.002653 -106.866371 -37.284729 111.420418 -2.681367 -0.375536 -32.255875 21.060005 -2.420881 0.239269 4.754609 0.109184 -0.002672 89.439255 11.551149 48.433666 84.204048 -1.200832 46.819286 3.805396 14.599328 0.636055 -46.145741 7.946988 11.509235 37.174351 -3.650564 -11.904469 -16.194197 -1.077340 2.133108 -50.661663 -6.581892 2.938425 44.860664 2.151189 -1.841688 -6.224202 -1.418952 10.600561 
-14.868553 47.481838 -66.501785 29.418840 -16.873558 19.286837 22.989531 -0.072059 -1.758526 -20.839844 0.000000 0.000000 28.172033 10.185136 5.692439 -2.520832 -1.255077 0.218355 -4.754609 -0.109184 -0.002653 -103.767097 -32.136261 105.305107 -2.645851 -0.258476 -24.678490 19.772837 -2.735979 0.172394 4.754609 0.109184 -0.002672 91.005821 8.255440 51.625004 83.710655 -1.190990 46.572704 3.411349 14.562142 0.584971 -31.424252 5.468512 9.184529 24.034168 -3.871690 -6.817008 -8.268597 -0.256806 -3.684211 -48.630062 -4.384725 3.065501 29.166929 2.680308 -4.847414 -5.709950 -1.824218 13.455627 
-11.129508 48.448460 -62.471786 27.067930 -14.161171 17.511877 23.089527 0.096590 -1.433322 -20.839844 0.000000 0.000000 37.145615 8.061581 5.079908 -2.520832 -1.255077 0.218355 -4.754609 -0.109184 -0.002653 -101.048973 -25.674738 97.972626 -2.634208 -0.206289 -21.514830 18.434006 -3.924546 -0.000463 4.754609 0.109184 -0.002672 91.652313 4.102400 54.916489 83.345383 -1.221506 47.871349 4.400911 15.649871 0.768961 -15.702036 1.562136 0.698162 7.613917 -3.641046 3.142047 5.314796 0.065972 -12.936737 -36.529781 -4.511110 2.326293 -2.601404 2.809181 -11.241384 4.105914 -0.213019 15.561543 
